#!OML:ASF F:\VICON\USERDATA\INSTALL\rory3\rory3.ASF
:FULLY-SPECIFIED
:DEGREES
121
root -0.26542474729983473 18.130515782724572 46.20778663679736 1.8650258993705413 4.967589442284697 -0.7311204639353501
lfemur -38.49935471834358 0.5582880215127153 -17.646841622933852
ltibia 34.55216432300639
lfoot 6.828786210947229 -9.934415088344952
ltoes -24.922373342972286
rfemur -1.1621517178489285 -0.5811952666026148 33.92788449924457
rtibia -7.3555546688821565
rfoot 9.023497422412476 -1.267472304089253
rtoes -25.418670696842167
lowerback 1.0 -0.6281107418486969 1.479429531924439
upperback -2.0232481028059457 0.18563409196599845 1.5865535930598567
thorax -5.576580964765394 0.3322199621716986 0.837288919040194
lowerneck -17.14690348260634 -3.9318988651850244 -2.5544409329430637
upperneck 17.630245338418757 -5.132262277175431 1.5279497217856215
head 8.479616440257656 -2.855431285901855 0.14747911881054931
lclavicle 7.11080883068295e-15 -3.253555104848548e-14
lhumerus -62.71053971223424 -11.702908306318601 98.06634234123727
lradius 116.08112134061983
lwrist 52.19793143500003
lhand -28.272461663556488 2.555096883886928
lfingers nan
lthumb -1.9337630900897582 32.61751656385435
rclavicle 7.32612559232426e-15 -3.1103526318584276e-14
rhumerus -51.22061862363037 6.614928674548313 -94.24995258728177
rradius 137.52113968820854
rwrist -11.355329360594899
rhand -21.259122110978154 1.0
rfingers nan
rthumb 5.134476917731755 18.424314776646646
122
root -0.2512646100647191 18.113777708251142 46.10414685276304 1.912386670658391 4.577779313709294 -0.6235354277111855
lfemur -38.66890768587987 0.07313990312434449 -18.319144850214297
ltibia 30.06210311676173
lfoot 7.009619004966206 -9.588180908326063
ltoes -28.01065771035418
rfemur 0.8416790172032655 -0.6938149031524978 33.12802422183147
rtibia -8.899763796754435
rfoot 15.595769877722633 -0.1424656733197356
rtoes -18.87451962915654
lowerback 1.0 -0.5755840498217522 1.34506015128441
upperback -2.3473587139524126 0.30407653794458334 1.4482146753572487
thorax -5.753630901865016 0.3847243617469604 0.7836361265686532
lowerneck -15.478023428281936 -4.019077659528292 -2.591304065073643
upperneck 17.626821708272118 -5.207664820794109 1.4751539905894107
head 8.273889107414673 -2.9145451309366037 0.14716027833238499
lclavicle 1.245145350503936e-15 -1.7401454223512126e-14
lhumerus -63.77676553578138 -10.644561029005873 97.72048345013795
lradius 116.70980662369405
lwrist 52.72249734448356
lhand -31.26157230486809 7.254982235162316
lfingers nan
lthumb -4.822634802973422 37.46257455537797
rclavicle 1.9151082173072785e-15 -1.55385648302775e-14
rhumerus -52.02600258168832 6.937171586225446 -94.22669751977433
rradius 137.68889313295304
rwrist -9.640533845946315
rhand -20.019207216555774 1.0
rfingers nan
rthumb 6.289917962953662 13.928977376466058
123
root -0.2639334239339129 18.104640257957392 45.410710648755185 1.6675618219623656 5.765046330685162 -0.5579525871365214
lfemur -38.624594366719364 -1.3828776343013747 -18.569147694047736
ltibia 25.407144571942144
lfoot 7.858664045844913 -9.983993398432741
ltoes -29.07619696916361
rfemur 2.584921228134373 -1.806250365177072 33.10853572720757
rtibia -10.067492696025063
rfoot 21.498056660597353 -0.5518120650300169
rtoes -19.481595147874742
lowerback 1.0 -0.8481497729363112 1.4266243845539135
upperback -2.577980771991894 0.002957390348319655 1.471698437568536
thorax -6.979240820251839 0.24596639025217257 0.8412111940288911
lowerneck -14.709540062447468 -4.119484062722879 -2.70202127698424
upperneck 17.615794323759022 -5.240832897370953 1.546627591057199
head 8.191988861032952 -2.9624343662563155 0.20081260701000592
lclavicle -2.789252071217964e-14 -6.659011887319252e-15
lhumerus -64.39625659389156 -9.85536668264382 97.31084498006764
lradius 117.13680074829443
lwrist 53.548510175195204
lhand -32.40708126176809 8.459327505175757
lfingers nan
lthumb -5.9616493409187 38.78281202703411
rclavicle -2.7057351729124155e-14 -4.8230930352504376e-15
rhumerus -52.48646931506384 6.934346644092678 -93.22870472469613
rradius 136.76721855445595
rwrist -9.413606518996373
rhand -15.966560193209167 1.0
rfingers nan
rthumb 10.176490789083198 16.07197077577471
124
root -0.2682400667322729 18.09616976645886 45.15748484596081 1.6638292057370028 3.917739861746888 -0.6274839303832358
lfemur -37.69807837195998 -1.1663681814999076 -19.207647095294842
ltibia 20.413051599564014
lfoot 8.250783948514664 -9.63579122274529
ltoes -27.9442457258682
rfemur 4.302950228066152 -1.2119894983052952 32.01557536604451
rtibia -10.895375432559966
rfoot 26.372586214972138 0.06517469203701687
rtoes -22.552647919331854
lowerback 1.0 -0.5641461846777078 1.042378458728078
upperback -2.247337769277861 0.4071901896209231 1.3150139671386862
thorax -5.497026945636977 0.41033261567245016 0.7429926910328981
lowerneck -14.517433428898809 -4.164928639535857 -2.6829574971964734
upperneck 17.684891613302355 -5.203718032067112 1.4757326797409127
head 8.195962758012872 -2.9802432266600345 0.19079443280202812
lclavicle 4.8328716294000304e-14 5.28989406172727e-15
lhumerus -64.90169942378846 -9.095013450431011 96.80401012927652
lradius 117.47738504040514
lwrist 54.725960480585954
lhand -33.53662054552315 7.309352021957914
lfingers nan
lthumb -7.142853791706239 37.584931036030234
rclavicle 4.8660124791286786e-14 7.51863809609443e-15
rhumerus -52.98095159071331 7.21750736690511 -92.70521940718008
rradius 136.31373970676617
rwrist -6.744836414630931
rhand -14.873306512543683 1.0
rfingers nan
rthumb 11.176708022232885 13.782285206570418
125
root -0.25743752434986883 18.088795527626264 46.27171641206729 1.7365540480088573 3.9371700569161723 -0.184802207638604
lfemur -37.032020154083625 -1.7448811766054602 -20.07148381586566
ltibia 15.648486885547413
lfoot 8.397250972667587 -9.6506526918267
ltoes -30.163455603498647
rfemur 5.171785053666692 -1.167875841675058 31.09916177466291
rtibia -11.053402171569168
rfoot 30.258994364443158 0.04411397686317997
rtoes -15.709848385317962
lowerback 1.0 -0.5701956270940285 0.6717708544255111
upperback -2.3212388555851575 0.43993308659689156 1.0156154278011873
thorax -5.327219374633518 0.3984959579223598 0.7496416587109493
lowerneck -14.4531606607453 -4.276027025719502 -2.5771949830930914
upperneck 18.099813533984413 -5.250471439916189 1.3610708294999445
head 8.329468524652585 -3.0453585207692373 0.13297499140704394
lclavicle -7.23121910740559e-16 -1.2339751818716239e-14
lhumerus -65.60998064488854 -8.515212546952824 96.40456295704772
lradius 117.81803094558181
lwrist 54.79479272655928
lhand -37.9137913138317 7.3435998292974025
lfingers nan
lthumb -11.30158016668711 37.54321865981788
rclavicle -8.08457820983999e-16 -1.0623820747172183e-14
rhumerus -53.650613831243646 7.318114230768502 -92.65455637634001
rradius 136.1551659409814
rwrist -4.384303207784956
rhand -18.260605815835948 1.0
rfingers nan
rthumb 7.844440028688741 17.11362417684743
126
root -0.2411076676879823 18.07300776115976 46.564761702124365 1.8813476872994286 3.915689072850502 0.15838156716627672
lfemur -36.31308675068567 -2.2431570185193945 -20.84820827773356
ltibia 10.887539905640523
lfoot 8.668806985679565 -10.375085126903704
ltoes -32.2451572024079
rfemur 5.503418153816039 -0.6512963731213812 30.451876361391726
rtibia -10.54834151142159
rfoot 32.9635649415301 -0.2747968990341718
rtoes -3.470823294358848
lowerback 1.0 -0.5564545308105204 0.437725442706447
upperback -2.6016889663223806 0.5099108007609865 0.7201101320456484
thorax -5.566253773284293 0.4067543656320013 0.7295025641094989
lowerneck -14.067920544561066 -4.419444269451286 -2.5506993756589624
upperneck 18.47208226827845 -5.314204178910866 1.4103342717545317
head 8.422595403562797 -3.1121000067719944 0.15039776394108778
lclavicle 3.031038722972013e-14 2.1121411924013936e-14
lhumerus -66.40658327902875 -7.984638996247645 96.02035921784653
lradius 118.28367231223676
lwrist 54.95203008251724
lhand -39.63404490710979 8.999678643883648
lfingers nan
lthumb -12.903228840601821 39.13702971363675
rclavicle 3.0478136980582246e-14 2.288310245917351e-14
rhumerus -54.53384997649835 7.2822020314039575 -92.91425598313421
rradius 135.89327894905574
rwrist -2.7572269447301263
rhand -21.40360747109953 1.0
rfingers nan
rthumb 4.71763958763708 19.279587870255824
127
root -0.23326245896800463 18.076801238243398 46.679071839127424 2.0915611054416128 3.849938316031235 0.09449094120869983
lfemur -35.73701181448715 -2.587065165480366 -21.224993285809493
ltibia 6.3827605117370965
lfoot 9.05200911069074 -11.523908571835658
ltoes -34.250809745668846
rfemur 5.685577186636689 0.35053883164875166 30.590587204839125
rtibia -9.134382346446692
rfoot 34.36066143355187 -1.714704165935033
rtoes 3.631978788769824
lowerback 1.0 -0.5387795704003755 0.3932694763844975
upperback -2.9602298272196674 0.6368666733092918 0.6142003815277535
thorax -6.277748298183093 0.42984877712721387 0.7100696195723283
lowerneck -14.1603791251305 -4.628760224707532 -2.7027976095985977
upperneck 18.90250288840618 -5.433719632001052 1.6290590294145177
head 8.626967419275568 -3.1829705803105073 0.2593414664973135
lclavicle 1.4325302256865487e-14 -3.36768003571515e-16
lhumerus -67.05177183892312 -7.4448633181723665 95.61066240586804
lradius 118.74535022349777
lwrist 55.40980436044127
lhand -38.66209236293019 8.861204975067865
lfingers nan
lthumb -11.929303142149848 38.93293635501618
rclavicle 1.3875452519708765e-14 9.571321469681017e-16
rhumerus -55.29038720721018 7.400806238737591 -93.04699163881313
rradius 135.73037718139236
rwrist -3.1360975833047036
rhand -19.427388835296618 1.0
rfingers nan
rthumb 6.594549638246627 16.934848794358373
